<?xml version="1.0" encoding="UTF-8" standalone="no"?>
<!-- Created with Inkscape (http://www.inkscape.org/) -->

<svg
   xmlns:svg="http://www.w3.org/2000/svg"
   xmlns="http://www.w3.org/2000/svg"
   version="1.0"
   width="225"
   height="150"
   id="svg2">
  <defs
     id="defs5" />
  <path
     d="M 0,0 0,50 225,50 225,0 0,0 z"
     id="rect1308"
     style="fill:#333333" />
  <path
     d="m 0,50 0,50 225,0 0,-50 -225,0 z"
     id="rect1310"
     style="fill:#666666" />
  <path
     d="m 0,100 0,50 225,0 0,-50 -225,0 z"
     id="rect1313"
     style="fill:#b3b3b3" />
  <path
     d="m 64.255859,62.075068 -1.11914,0 c -0.0078,-0.02734 -0.04395,-0.12695 -0.108399,-0.298828 -0.06445,-0.171872 -0.09668,-0.322263 -0.09668,-0.451172 -2e-6,-0.24609 0.03418,-0.482418 0.102539,-0.708984 0.06836,-0.226559 0.168943,-0.438473 0.301758,-0.635743 0.13281,-0.19726 0.395505,-0.51269 0.788085,-0.946289 0.392575,-0.433587 0.588864,-0.791009 0.588868,-1.072265 -4e-6,-0.546868 -0.357425,-0.820305 -1.072266,-0.820313 -0.347658,8e-6 -0.710939,0.173836 -1.089844,0.521485 l -0.603515,-1.13086 c 0.503905,-0.394523 1.166013,-0.591788 1.986328,-0.591797 0.632809,9e-6 1.161129,0.17579 1.584961,0.527344 0.423823,0.35157 0.635737,0.818367 0.635742,1.400391 -5e-6,0.398444 -0.07715,0.735357 -0.231445,1.010742 -0.154302,0.275396 -0.425786,0.598638 -0.814454,0.969726 -0.388675,0.371099 -0.641604,0.679692 -0.758789,0.925782 -0.11719,0.246097 -0.175784,0.515628 -0.175781,0.808593 -3e-6,0.0625 0.02734,0.226566 0.08203,0.492188 l 0,0 z m -0.498046,0.796875 c 0.265622,2e-6 0.491208,0.09375 0.676757,0.28125 0.185544,0.187501 0.278317,0.414064 0.278321,0.679687 -4e-6,0.265626 -0.09278,0.492188 -0.278321,0.679688 -0.185549,0.1875 -0.411135,0.28125 -0.676757,0.28125 -0.265628,0 -0.49219,-0.09375 -0.679688,-0.28125 -0.187502,-0.1875 -0.281251,-0.414062 -0.28125,-0.679688 -10e-7,-0.265623 0.09375,-0.492186 0.28125,-0.679687 0.187498,-0.187498 0.41406,-0.281248 0.679688,-0.28125 l 0,0 z"
     transform="matrix(10.52848,0,0,10.52848,-561.8574,-560.5734)"
     id="flowRoot1875"
     style="font-size:12px;font-style:normal;font-variant:normal;font-weight:bold;font-stretch:normal;text-align:start;line-height:125%;writing-mode:lr-tb;text-anchor:start;fill:#ffffff;font-family:Trebuchet MS" />
</svg>
